<?xml version="1.0" encoding="UTF-8"?>
<!DOCTYPE svg PUBLIC "-//W3C//DTD SVG 1.1//EN" "http://www.w3.org/Graphics/SVG/1.1/DTD/svg11.dtd">
<svg xmlns="http://www.w3.org/2000/svg" version="1.1" width="304px" height="210px" style="shape-rendering:geometricPrecision; text-rendering:geometricPrecision; image-rendering:optimizeQuality; fill-rule:evenodd; clip-rule:evenodd" xmlns:xlink="http://www.w3.org/1999/xlink">
<g><path style="opacity:1" fill="#ce8e32" d="M 160.5,50.5 C 160.414,51.4959 160.748,52.3292 161.5,53C 160.906,53.4643 160.239,53.631 159.5,53.5C 146.178,52.1622 135.511,56.8289 127.5,67.5C 124.485,66.1821 121.485,65.1821 118.5,64.5C 115.983,63.027 113.15,62.3603 110,62.5C 107.967,62.5056 106.134,62.8389 104.5,63.5C 90.1566,66.5164 80.4899,74.8497 75.5,88.5C 74.0872,91.3823 73.4205,94.5489 73.5,98C 73.5056,100.033 73.8389,101.866 74.5,103.5C 79.1639,124.996 92.4972,135.496 114.5,135C 117.85,134.75 121.017,133.917 124,132.5C 126.364,133.881 128.864,134.881 131.5,135.5C 135.646,136.647 139.98,136.814 144.5,136C 146.852,135.76 148.852,134.927 150.5,133.5C 156.834,131.166 161.834,127.166 165.5,121.5C 165.972,126.287 168.306,129.787 172.5,132C 151.03,166.049 121.03,176.716 82.5,164C 51.0898,148.207 37.2565,122.707 41,87.5C 46.9252,59.5745 63.4252,41.0745 90.5,32C 117.479,25.0757 140.812,31.2424 160.5,50.5 Z"/></g>
<g><path style="opacity:0.78" fill="#ebcca2" d="M 160.5,50.5 C 162.89,51.8908 164.557,53.8908 165.5,56.5C 163.456,55.4918 161.456,54.4918 159.5,53.5C 160.239,53.631 160.906,53.4643 161.5,53C 160.748,52.3292 160.414,51.4959 160.5,50.5 Z"/></g>
<g><path style="opacity:0.063" fill="#f9f2e6" d="M 165.5,56.5 C 166.833,57.1667 166.833,57.1667 165.5,56.5 Z"/></g>
<g><path style="opacity:1" fill="#3b2570" d="M 149.5,130.5 C 146.933,130.721 144.599,131.388 142.5,132.5C 133.14,134.103 125.306,131.436 119,124.5C 118.209,123.255 117.709,121.922 117.5,120.5C 117.719,119.325 117.386,118.325 116.5,117.5C 115.893,117.624 115.56,117.957 115.5,118.5C 111.492,125.336 105.492,128.169 97.5,127C 92.8451,124.103 91.3451,119.937 93,114.5C 94.4246,106.82 97.5912,99.9865 102.5,94C 104.677,92.7978 107.011,92.2978 109.5,92.5C 109.662,94.5273 109.495,96.5273 109,98.5C 106.064,103.373 103.397,108.373 101,113.5C 99.4836,121.647 102.317,123.814 109.5,120C 113.939,115.562 117.606,110.562 120.5,105C 123.881,102.755 127.548,102.088 131.5,103C 125.219,108.645 124.052,115.145 128,122.5C 136.864,129.005 145.53,128.671 154,121.5C 156.828,117.698 157.161,113.698 155,109.5C 146.511,102.922 137.844,96.5889 129,90.5C 124.738,77.4886 128.572,67.322 140.5,60C 147.782,56.523 155.115,56.1896 162.5,59C 163.701,59.9025 164.535,61.0692 165,62.5C 166.121,71.8097 163.954,80.3097 158.5,88C 155.042,88.036 153.375,86.2027 153.5,82.5C 154.498,77.674 155.998,73.0073 158,68.5C 158.758,66.2305 158.591,64.0639 157.5,62C 146.438,61.1236 138.938,65.9569 135,76.5C 134.333,78.8333 134.333,81.1667 135,83.5C 136.833,85.3333 138.667,87.1667 140.5,89C 146.089,91.5995 151.423,94.5995 156.5,98C 163.991,104.994 165.491,113.16 161,122.5C 158.095,126.582 154.262,129.249 149.5,130.5 Z"/></g>
<g><path style="opacity:1" fill="#3d2771" d="M 177.5,113.5 C 176.697,114.423 176.53,115.423 177,116.5C 178.039,115.756 178.539,114.756 178.5,113.5C 180.285,106.767 183.952,101.267 189.5,97C 198.175,93.1671 203.175,95.8338 204.5,105C 203.867,110.033 202.534,114.866 200.5,119.5C 200.747,122.082 202.08,122.915 204.5,122C 207.63,119.872 210.463,117.372 213,114.5C 214.871,109.919 217.371,105.752 220.5,102C 222.715,100.956 225.048,100.29 227.5,100C 230.477,91.446 235.977,89.2793 244,93.5C 246.31,100.748 245.143,107.415 240.5,113.5C 239.243,114.623 239.576,115.289 241.5,115.5C 244.849,114.741 247.682,113.074 250,110.5C 251.122,103.81 252.289,97.1428 253.5,90.5C 255.695,89.2309 257.861,89.2309 260,90.5C 261.66,93.7698 261.994,97.1031 261,100.5C 266.209,92.9693 273.042,90.8026 281.5,94C 283.049,95.214 284.215,96.714 285,98.5C 286.251,118.213 277.084,127.713 257.5,127C 256.619,126.292 255.953,125.458 255.5,124.5C 253.358,131.715 251.191,139.049 249,146.5C 247.666,150.104 245.166,151.271 241.5,150C 240.978,149.439 240.645,148.772 240.5,148C 243.388,139.614 245.888,131.114 248,122.5C 248.798,120.741 248.631,119.074 247.5,117.5C 244.277,119.416 240.943,119.749 237.5,118.5C 232.295,124.94 225.628,127.773 217.5,127C 215.393,125.736 214.393,123.903 214.5,121.5C 214.655,118.147 213.988,117.814 212.5,120.5C 208.181,126.088 202.514,127.921 195.5,126C 193.703,124.406 192.703,122.406 192.5,120C 193.786,114.842 194.619,109.675 195,104.5C 191.794,102.876 189.128,103.542 187,106.5C 183.727,112.712 180.727,119.046 178,125.5C 174.801,129.659 172.135,129.325 170,124.5C 168.982,111.565 171.315,99.232 177,87.5C 181.278,76.4365 187.444,66.6031 195.5,58C 200.423,57.412 202.757,59.7454 202.5,65C 199.756,79.3343 192.589,90.8343 181,99.5C 179.008,103.96 177.841,108.627 177.5,113.5 Z M 195.5,70.5 C 194.04,75.4184 192.04,80.0851 189.5,84.5C 188.094,84.9731 187.427,85.9731 187.5,87.5C 186.5,87.8333 185.833,88.5 185.5,89.5C 184.833,89.5 184.5,89.1667 184.5,88.5C 187.177,81.7962 190.844,75.7962 195.5,70.5 Z M 239.5,95.5 C 240.369,97.717 240.702,100.05 240.5,102.5C 239.538,105.757 238.038,108.757 236,111.5C 233.294,107.32 232.961,102.987 235,98.5C 236.129,96.8588 237.629,95.8588 239.5,95.5 Z M 255.5,124.5 C 256.172,113.355 261.172,104.855 270.5,99C 275.496,98.1593 277.829,100.326 277.5,105.5C 275.07,117.398 267.736,123.731 255.5,124.5 Z M 226.5,103.5 C 227.167,104.5 227.833,105.5 228.5,106.5C 228.467,110.102 229.801,113.102 232.5,115.5C 230.478,118.356 227.978,120.689 225,122.5C 223.303,121.636 222.137,120.303 221.5,118.5C 222.573,113.282 224.239,108.282 226.5,103.5 Z"/></g>
<g><path style="opacity:0.137" fill="#f6ebda" d="M 168.5,60.5 C 167.833,59.1667 167.833,59.1667 168.5,60.5 Z"/></g>
<g><path style="opacity:0.275" fill="#eed9bb" d="M 104.5,63.5 C 106.134,62.8389 107.967,62.5056 110,62.5C 113.15,62.3603 115.983,63.027 118.5,64.5C 113.848,64.0019 109.181,63.6686 104.5,63.5 Z"/></g>
<g><path style="opacity:1" fill="#d59b4b" d="M 168.5,60.5 C 172.524,65.8809 175.524,71.8809 177.5,78.5C 173.439,87.2872 169.939,96.2872 167,105.5C 164.861,102.061 162.361,98.894 159.5,96C 154.417,92.7079 149.25,89.5412 144,86.5C 142.421,83.0061 140.587,79.6728 138.5,76.5C 141.416,68.2035 147.083,64.5368 155.5,65.5C 152.992,71.1901 150.992,77.0234 149.5,83C 150.512,88.6875 153.846,91.3542 159.5,91C 166.865,82.0766 169.865,71.9099 168.5,60.5 Z"/></g>
<g><path style="opacity:0.106" fill="#aba3c3" d="M 196.5,70.5 C 196.672,69.5084 196.338,68.8417 195.5,68.5C 195.783,67.7109 196.283,67.0442 197,66.5C 197.765,68.0657 197.598,69.3991 196.5,70.5 Z"/></g>
<g><path style="opacity:1" fill="#432d75" d="M 112.5,75.5 C 119.896,75.6148 121.23,78.4481 116.5,84C 110.089,87.2217 107.255,85.3883 108,78.5C 109.652,77.6006 111.152,76.6006 112.5,75.5 Z"/></g>
<g><path style="opacity:0.557" fill="#9388b2" d="M 189.5,84.5 C 189.573,86.0269 188.906,87.0269 187.5,87.5C 187.427,85.9731 188.094,84.9731 189.5,84.5 Z"/></g>
<g><path style="opacity:0.035" fill="#dad7e5" d="M 184.5,88.5 C 184.5,89.1667 184.833,89.5 185.5,89.5C 185.158,90.3382 184.492,90.6716 183.5,90.5C 183.328,89.5084 183.662,88.8417 184.5,88.5 Z"/></g>
<g><path style="opacity:0.296" fill="#edd7b6" d="M 75.5,88.5 C 74.8363,93.4725 74.5029,98.4725 74.5,103.5C 73.8389,101.866 73.5056,100.033 73.5,98C 73.4205,94.5489 74.0872,91.3823 75.5,88.5 Z"/></g>
<g><path style="opacity:0.239" fill="#bbb4ce" d="M 239.5,95.5 C 240.725,96.1522 241.392,97.3189 241.5,99C 241.486,100.385 241.152,101.551 240.5,102.5C 240.702,100.05 240.369,97.717 239.5,95.5 Z"/></g>
<g><path style="opacity:0.233" fill="#bab3cd" d="M 226.5,103.5 C 226.56,102.957 226.893,102.624 227.5,102.5C 228.429,103.689 228.762,105.022 228.5,106.5C 227.833,105.5 227.167,104.5 226.5,103.5 Z"/></g>
<g><path style="opacity:1" fill="#d79e51" d="M 145.5,105.5 C 151.377,107.921 153.544,112.255 152,118.5C 147.94,122.392 143.107,123.892 137.5,123C 141.923,117.986 144.59,112.153 145.5,105.5 Z"/></g>
<g><path style="opacity:0.365" fill="#afa7c6" d="M 177.5,113.5 C 177.833,113.5 178.167,113.5 178.5,113.5C 178.539,114.756 178.039,115.756 177,116.5C 176.53,115.423 176.697,114.423 177.5,113.5 Z"/></g>
<g><path style="opacity:0.306" fill="#ccc8db" d="M 240.5,113.5 C 240.833,114.167 241.167,114.833 241.5,115.5C 239.576,115.289 239.243,114.623 240.5,113.5 Z"/></g>
<g><path style="opacity:0.494" fill="#aba4c3" d="M 115.5,118.5 C 115.56,117.957 115.893,117.624 116.5,117.5C 117.386,118.325 117.719,119.325 117.5,120.5C 116.833,119.833 116.167,119.167 115.5,118.5 Z"/></g>
<g><path style="opacity:0.369" fill="#b4adc9" d="M 214.5,121.5 C 213.833,121.167 213.167,120.833 212.5,120.5C 213.988,117.814 214.655,118.147 214.5,121.5 Z"/></g>
<g><path style="opacity:0.029" fill="#eae3e0" d="M 149.5,130.5 C 149.557,131.609 149.89,132.609 150.5,133.5C 148.852,134.927 146.852,135.76 144.5,136C 139.98,136.814 135.646,136.647 131.5,135.5C 134.681,135.258 137.681,135.258 140.5,135.5C 141.425,134.643 142.092,133.643 142.5,132.5C 144.599,131.388 146.933,130.721 149.5,130.5 Z"/></g>
</svg>
